# xmcd
#
# Track frame offsets: 
#        150
#        12984
#        27207
#        40226
#        52622
#        64993
#        78096
#        91736
#        106542
#        120439
#        135058
#        149427
#        163159
#        175566
#        188655
#        201203
#        214327
#        229319
#        241711
#        254339
#        269014
#        282791
#        294827
#        308653
#
# Disc length: 4318 seconds
#
# Revision: 2
# Processed by: cddbd v1.5.2PL0 Copyright (c) Steve Scherf et al.
# Submitted via: ExactAudioCopy v1.0b3
#
DISCID=3910dc18
DTITLE=Carter Family - The Best of The Carter Family
DYEAR=1999
DGENRE=Country
TTITLE0=Keep On The Sunny Side
TTITLE1=Wildwood Flower
TTITLE2=Bury Me Under The Weeping Willow
TTITLE3=Anchored In Love
TTITLE4=Worried Man Blues
TTITLE5=John Hardy Was A Desperate Little Man
TTITLE6=I'm Thinking Tonight Of My Blue Eyes
TTITLE7=My Clinch Mountain Home
TTITLE8=The Foggy Mountain Top
TTITLE9=Little Darling Pal Of Mine
TTITLE10=Sailor Boy
TTITLE11=When I'm Gone
TTITLE12=Single Girl, Married Girl
TTITLE13=Rambling Boy
TTITLE14=The Mountains Of Tennessee
TTITLE15=My Old Cottage Home
TTITLE16=The Wandering Boy
TTITLE17=In The Valley Of The Shenandoah
TTITLE18=The Storms Are On The Ocean
TTITLE19=Meet Me By The Moonlight Alone
TTITLE20=The Dying Soldier
TTITLE21=Lonesome Valley
TTITLE22=Chewing Gum
TTITLE23=My Clinch Mountain Home  - Little Darling Pal Of Mine  - Ther
TTITLE23=e'll Be A Hot Time In The Old Town Tonight (with Jimmy Rodger
TTITLE23=s)
EXTD=
EXTT0=
EXTT1=
EXTT2=
EXTT3=
EXTT4=
EXTT5=
EXTT6=
EXTT7=
EXTT8=
EXTT9=
EXTT10=
EXTT11=
EXTT12=
EXTT13=
EXTT14=
EXTT15=
EXTT16=
EXTT17=
EXTT18=
EXTT19=
EXTT20=
EXTT21=
EXTT22=
EXTT23=
PLAYORDER=
